<?xml version="1.0" encoding="UTF-8" standalone="no"?>
<!DOCTYPE svg PUBLIC "-//W3C//DTD SVG 1.1//EN" "http://www.w3.org/Graphics/SVG/1.1/DTD/svg11.dtd">
<svg width="100%" height="100%" viewBox="0 0 114 71" version="1.1" xmlns="http://www.w3.org/2000/svg" xmlns:xlink="http://www.w3.org/1999/xlink" xml:space="preserve" xmlns:serif="http://www.serif.com/" style="fill-rule:evenodd;clip-rule:evenodd;stroke-linecap:round;stroke-linejoin:round;">
    <g transform="matrix(0.49563,0,0,0.528714,20.5425,20.5474)">
        <rect x="-42.067" y="-38.99" width="230.01" height="134.288" style="fill:white;"/>
    </g>
    <g transform="matrix(0.974906,0,0,0.974906,4.30156,1.30694)">
        <g id="Picard">
            <g id="Picard1" serif:id="Picard">
                <g transform="matrix(1.00316,0,0,-1.00316,0.925786,114.524)">
                    <path d="M-12.766,46.039C-11.375,47.257 -10.145,48.66 -9.121,50.203C-8.582,51.019 -8.098,51.874 -7.469,52.628C-6.84,53.378 -6.043,54.027 -5.098,54.277C-4.711,54.378 -4.309,54.41 -3.914,54.371C-3.883,54.992 -3.648,55.597 -3.25,56.074C-2.695,56.742 -1.863,57.128 -1.023,57.355C-0.359,57.535 0.324,57.628 1.012,57.636C1.945,58.039 2.852,58.515 3.711,59.058C4.664,59.664 5.594,60.363 6.695,60.621C7.219,60.746 7.77,60.761 8.305,60.667C8.539,61.257 8.879,61.804 9.297,62.277C9.945,63.011 10.773,63.562 11.625,64.046C12.477,64.531 13.359,64.96 14.176,65.499C14.793,65.906 15.367,66.374 15.98,66.796C16.59,67.214 17.246,67.585 17.965,67.773C18.578,67.929 19.234,67.949 19.855,67.82C19.871,68.16 19.984,68.496 20.188,68.773C20.387,69.05 20.672,69.265 20.992,69.382C21.387,69.523 21.816,69.519 22.23,69.566C22.441,69.589 22.648,69.628 22.844,69.699C23.039,69.773 23.223,69.886 23.359,70.042C23.543,70.253 23.633,70.527 23.691,70.796C23.754,71.066 23.789,71.347 23.883,71.605C24.066,72.121 24.465,72.527 24.902,72.859C25.336,73.187 25.816,73.453 26.25,73.785C26.762,74.179 27.203,74.664 27.672,75.109C28.93,76.316 30.398,77.269 31.742,78.378C32.75,79.207 33.723,80.148 34.961,80.554C35.539,80.746 36.152,80.812 36.762,80.839C39.227,80.953 41.676,80.453 44.102,79.988C46.559,79.519 49.02,79.082 51.488,78.664C53.727,78.281 55.969,77.921 58.211,77.574L85.391,76.863C85.547,76.109 85.754,75.363 86.008,74.636C86.281,73.847 86.621,73.066 87.145,72.41C87.77,71.624 88.633,71.062 89.535,70.617C90.438,70.175 91.387,69.839 92.305,69.429C95.242,68.109 97.781,66.035 100.637,64.55C102.086,63.8 103.609,63.203 105.043,62.421C106.727,61.499 108.266,60.339 109.777,59.152C111.164,58.062 112.57,56.91 113.422,55.367C114.441,53.519 114.563,51.292 114.227,49.21C114.023,47.933 113.66,46.664 113.754,45.374C113.797,44.82 113.922,44.273 113.945,43.718C113.988,42.609 113.617,41.531 113.375,40.449C112.93,38.449 112.93,36.351 113.375,34.351L-14.281,33.734L-12.766,46.039Z" style="fill:none;fill-rule:nonzero;stroke:black;stroke-width:1.13px;"/>
                </g>
                <g transform="matrix(1.00316,0,0,-1.00316,0.925786,131.739)">
                    <path d="M31.316,80.821C30.863,80.364 30.723,79.692 30.406,79.141C29.191,76.598 27.887,74.075 27.141,71.344C26.809,70.5 26.168,69.875 25.57,69.219C24.105,67.743 22.164,66.844 20.754,65.305C19.789,64.399 19.008,63.317 18.023,62.43C17.105,61.59 15.797,61.7 14.648,61.578C13.793,61.535 12.984,61.149 12.422,60.5C11.418,59.375 10.703,58.032 9.832,56.809C9.504,56.332 9.184,55.852 8.828,55.399C7.734,55.317 6.668,54.758 6.09,53.809C5.637,53.075 5.43,52.137 5.66,51.301C5.941,50.719 6.648,50.868 7.176,50.848C9.273,50.848 11.375,50.84 13.473,50.875C14.039,50.969 14.336,51.547 14.68,51.953C15.117,52.594 15.547,53.27 15.754,54.02C15.824,55.727 15.859,57.434 15.957,59.137C17.281,58.778 18.648,58.575 20.027,58.633C22.523,58.645 25.008,59.52 27,61.016C27.379,61.434 27.445,62.043 27.688,62.543C28.992,66.055 30.297,69.567 31.355,73.16C31.984,75.457 32.41,77.828 32.477,80.215C32.473,80.793 31.797,81.129 31.316,80.821Z" style="fill-rule:nonzero;"/>
                </g>
                <g transform="matrix(1.00316,0,0,-1.00316,0.925786,131.696)">
                    <path d="M-1.117,71.727C0.527,70.176 1.922,68.364 3,66.375C4.066,64.41 4.82,62.278 5.227,60.078" style="fill:none;fill-rule:nonzero;stroke:black;stroke-width:1.13px;"/>
                </g>
                <g transform="matrix(1.00316,0,0,-1.00316,0.925786,121.069)">
                    <path d="M2.102,61.367C5,60.309 8.063,59.684 11.145,59.523C15.84,59.273 20.59,60.106 24.926,61.938" style="fill:none;fill-rule:nonzero;stroke:black;stroke-width:1.13px;"/>
                </g>
                <g transform="matrix(1.00316,0,0,-1.00316,0.925786,114.964)">
                    <path d="M7.594,56.609C10.77,56.387 13.973,56.547 17.109,57.082C19.297,57.453 21.453,58.008 23.551,58.738" style="fill:none;fill-rule:nonzero;stroke:black;stroke-width:1.13px;"/>
                </g>
                <g transform="matrix(1.00316,0,0,-1.00316,0.925786,104.383)">
                    <path d="M15.645,52.691C17.656,52.445 19.68,52.254 21.703,52.121C23.863,51.98 26.027,51.902 28.191,51.887" style="fill:none;fill-rule:nonzero;stroke:black;stroke-width:1.13px;"/>
                </g>
                <g transform="matrix(1.00316,0,0,-1.00316,0.925786,91.7145)">
                    <path d="M24.07,45.316C24.773,45.703 25.523,46.008 26.297,46.219C27.402,46.519 28.563,46.633 29.707,46.547" style="fill:none;fill-rule:nonzero;stroke:black;stroke-width:1.13px;"/>
                </g>
                <g transform="matrix(1.00316,0,0,-1.00316,0.925786,148.421)">
                    <path d="M15.598,70.641L15.785,75.993C16.602,75.739 17.445,75.563 18.293,75.469C19.621,75.325 20.969,75.383 22.273,75.661C23.984,76.024 25.617,76.774 27.008,77.836L23.836,71.207" style="fill:none;fill-rule:nonzero;stroke:black;stroke-width:1.13px;"/>
                </g>
                <g transform="matrix(1.00316,0,0,-1.00316,0.925786,100.395)">
                    <path d="M34.488,60.789C33.961,56.86 32.875,53.004 31.27,49.375C30.113,46.766 28.688,44.266 27.766,41.563C27.566,40.989 27.395,40.403 27.242,39.813" style="fill:none;fill-rule:nonzero;stroke:black;stroke-width:1.13px;"/>
                </g>
                <g transform="matrix(1.00316,0,0,-1.00316,0.925786,119.11)">
                    <path d="M27.008,48.617C28.063,51.36 29.066,54.117 30.023,56.895C30.57,58.485 31.098,60.082 31.496,61.719C32.203,64.629 32.48,67.645 32.32,70.641" style="fill:none;fill-rule:nonzero;stroke:black;stroke-width:1.13px;"/>
                </g>
                <g transform="matrix(1.00316,0,0,-1.00316,0.925786,101.449)">
                    <path d="M33.973,48.598C34.445,50.219 35.633,51.618 37.152,52.348C38.234,52.868 39.449,53.055 40.648,53.048C41.848,53.044 43.039,52.852 44.219,52.649C47.082,52.161 49.934,51.59 52.758,50.911C55.223,50.313 57.668,49.633 60.09,48.868" style="fill:none;fill-rule:nonzero;stroke:black;stroke-width:1.13px;"/>
                </g>
                <g transform="matrix(0.0347048,-1.00255,1.00255,0.0347048,-4.97148,115.399)">
                    <path d="M59.118,48.214C59.255,52.188 59.327,56.161 59.331,60.135C59.339,64.516 59.267,68.897 59.118,73.275C58.341,71.719 57.483,70.205 56.545,68.741C55.86,67.667 55.131,66.616 54.361,65.6" style="fill:none;fill-rule:nonzero;stroke:black;stroke-width:1.13px;"/>
                </g>
                <g transform="matrix(1.00316,0,0,-1.00316,0.925786,108.086)">
                    <path d="M28.348,69.304C29.73,70.031 31.363,70.277 32.902,69.98C33.613,69.843 34.297,69.597 34.977,69.343C37.66,68.343 40.301,67.214 42.848,65.898C45.91,64.308 48.832,62.449 51.918,60.906C54.477,59.628 57.152,58.566 59.922,57.859C67.262,55.988 75.02,56.644 82.488,55.382C83.945,55.136 85.391,54.816 86.84,54.546C89.676,54.015 92.543,53.667 95.348,53.007C97.484,52.503 99.582,51.816 101.605,50.964L102.512,51.164C103.715,50.175 104.844,49.101 105.895,47.949C107.414,46.281 108.758,44.46 110.246,42.761C110.664,42.281 111.094,41.812 111.441,41.281C111.789,40.749 112.051,40.144 112.086,39.511C112.098,39.312 112.09,39.109 112.105,38.91C112.125,38.706 112.172,38.503 112.289,38.339C112.426,38.148 112.652,38.023 112.891,38.007C113.086,37.992 113.289,38.042 113.449,38.156C113.613,38.269 113.734,38.437 113.789,38.624" style="fill:none;fill-rule:nonzero;stroke:black;stroke-width:1.13px;"/>
                </g>
                <g transform="matrix(1.00316,0,0,-1.00316,0.925786,53.1482)">
                    <path d="M57.813,10.293C57.758,10.52 57.668,10.734 57.543,10.93C57.426,11.125 57.277,11.297 57.141,11.477C57.004,11.66 56.875,11.852 56.809,12.07C56.711,12.383 56.742,12.723 56.824,13.043C56.91,13.359 57.043,13.664 57.145,13.977C57.406,14.789 57.465,15.66 57.422,16.512C57.375,17.543 57.184,18.563 56.941,19.57C56.684,20.649 56.355,21.742 56.441,22.852C56.496,23.609 56.742,24.344 56.992,25.063C57.242,25.785 57.5,26.512 57.578,27.27C57.668,28.149 57.52,29.051 57.711,29.914C57.941,30.926 58.617,31.777 58.949,32.762C59.246,33.633 59.258,34.574 59.453,35.473C59.805,37.082 60.727,38.496 61.598,39.891C62.699,41.664 63.746,43.477 65.078,45.082C66.816,47.18 69.02,48.891 71.473,50.07C73.785,51.184 76.34,51.832 78.906,51.813C81.961,51.785 84.977,50.805 87.578,49.199C89.891,47.774 91.949,45.762 92.867,43.207C93.137,42.465 93.305,41.676 93.707,40.996C93.859,40.734 94.047,40.488 94.207,40.227C94.848,39.18 95,37.891 94.859,36.668C94.719,35.449 94.305,34.277 93.871,33.129C92.926,30.606 91.875,28.117 90.727,25.68C91.094,25.664 91.449,25.477 91.664,25.176C91.789,25 91.867,24.789 91.914,24.574C91.957,24.359 91.973,24.141 91.98,23.922C92.016,23.113 91.996,22.293 91.797,21.512C91.527,20.461 90.949,19.516 90.324,18.633C89.488,17.445 88.555,16.324 87.578,15.25C87.332,14.981 87.082,14.711 86.797,14.481C86.512,14.25 86.191,14.059 85.84,13.961C85.57,13.887 85.289,13.871 85.016,13.91C84.938,12.723 84.598,11.555 84.027,10.512C83.293,9.16 82.195,8.043 81.051,7.012C79.012,5.184 76.742,3.551 74.152,2.66C71.672,1.809 69.008,1.672 66.383,1.688C65.105,1.699 63.813,1.742 62.574,2.07C61.336,2.395 60.145,3.027 59.352,4.031C58.633,4.945 58.289,6.102 58.082,7.246C57.898,8.25 57.809,9.274 57.813,10.293Z" style="fill:white;fill-rule:nonzero;"/>
                </g>
                <g transform="matrix(1.00316,0,0,-1.00316,0.925786,53.1482)">
                    <path d="M57.813,10.293C57.758,10.52 57.668,10.734 57.543,10.93C57.426,11.125 57.277,11.297 57.141,11.477C57.004,11.66 56.875,11.852 56.809,12.07C56.711,12.383 56.742,12.723 56.824,13.043C56.91,13.359 57.043,13.664 57.145,13.977C57.406,14.789 57.465,15.66 57.422,16.512C57.375,17.543 57.184,18.563 56.941,19.57C56.684,20.649 56.355,21.742 56.441,22.852C56.496,23.609 56.742,24.344 56.992,25.063C57.242,25.785 57.5,26.512 57.578,27.27C57.668,28.149 57.52,29.051 57.711,29.914C57.941,30.926 58.617,31.777 58.949,32.762C59.246,33.633 59.258,34.574 59.453,35.473C59.805,37.082 60.727,38.496 61.598,39.891C62.699,41.664 63.746,43.477 65.078,45.082C66.816,47.18 69.02,48.891 71.473,50.07C73.785,51.184 76.34,51.832 78.906,51.813C81.961,51.785 84.977,50.805 87.578,49.199C89.891,47.774 91.949,45.762 92.867,43.207C93.137,42.465 93.305,41.676 93.707,40.996C93.859,40.734 94.047,40.488 94.207,40.227C94.848,39.18 95,37.891 94.859,36.668C94.719,35.449 94.305,34.277 93.871,33.129C92.926,30.606 91.875,28.117 90.727,25.68C91.094,25.664 91.449,25.477 91.664,25.176C91.789,25 91.867,24.789 91.914,24.574C91.957,24.359 91.973,24.141 91.98,23.922C92.016,23.113 91.996,22.293 91.797,21.512C91.527,20.461 90.949,19.516 90.324,18.633C89.488,17.445 88.555,16.324 87.578,15.25C87.332,14.981 87.082,14.711 86.797,14.481C86.512,14.25 86.191,14.059 85.84,13.961C85.57,13.887 85.289,13.871 85.016,13.91C84.938,12.723 84.598,11.555 84.027,10.512C83.293,9.16 82.195,8.043 81.051,7.012C79.012,5.184 76.742,3.551 74.152,2.66C71.672,1.809 69.008,1.672 66.383,1.688C65.105,1.699 63.813,1.742 62.574,2.07C61.336,2.395 60.145,3.027 59.352,4.031C58.633,4.945 58.289,6.102 58.082,7.246C57.898,8.25 57.809,9.274 57.813,10.293Z" style="fill:none;fill-rule:nonzero;stroke:black;stroke-width:1.13px;"/>
                </g>
                <g transform="matrix(1.00316,0,0,-1.00316,0.925786,43.4537)">
                    <path d="M82.02,13.285C82.891,13.594 83.645,14.207 84.129,14.992C84.68,15.887 84.863,16.945 85.066,17.973C85.313,19.199 85.602,20.418 85.77,21.656C85.867,22.371 85.934,23.117 86.305,23.735C86.586,24.203 87.023,24.555 87.477,24.867C87.926,25.176 88.402,25.449 88.816,25.809C89.414,26.328 89.855,27.004 90.355,27.617C91.391,28.875 92.723,29.891 94.215,30.555" style="fill:none;fill-rule:nonzero;stroke:black;stroke-width:1.13px;"/>
                </g>
                <g transform="matrix(1.00316,0,0,-1.00316,0.925786,89.1685)">
                    <path d="M58.535,46.895C59.449,45.97 60.453,45.13 61.527,44.391C62.594,43.665 63.727,43.036 64.91,42.516" style="fill:none;fill-rule:nonzero;stroke:black;stroke-width:1.13px;stroke-linejoin:miter;"/>
                </g>
                <g transform="matrix(1.00316,0,0,-1.00316,0.925786,89.8025)">
                    <path d="M73.348,28.82C73.27,29.418 73.234,30.023 73.246,30.629C73.254,30.871 73.266,31.113 73.238,31.352C73.215,31.594 73.148,31.836 73.012,32.035C72.891,32.211 72.723,32.348 72.539,32.461C72.355,32.574 72.164,32.664 71.977,32.77C71.227,33.191 70.621,33.816 70.035,34.445C68.805,35.762 67.625,37.121 66.496,38.523C65.609,39.633 64.742,40.777 64.176,42.078C63.637,43.305 63.371,44.648 62.734,45.828C61.855,47.457 60.348,48.629 59.086,49.98C58.566,50.535 58.07,51.152 57.879,51.891C57.82,52.125 57.793,52.367 57.824,52.609C57.855,52.848 57.953,53.082 58.113,53.262C58.25,53.41 58.43,53.52 58.621,53.574C58.816,53.629 59.02,53.633 59.219,53.598C59.605,53.523 59.938,53.289 60.258,53.063C61.203,52.383 62.129,51.68 63.035,50.953C63.789,50.344 64.523,49.719 65.246,49.078C64.367,49.93 63.477,50.766 62.566,51.586C61.5,52.551 60.414,53.496 59.418,54.535C58.801,55.184 58.219,55.871 57.711,56.609C57.609,56.762 57.508,56.914 57.438,57.082C57.367,57.25 57.324,57.434 57.344,57.613C57.371,57.855 57.504,58.078 57.676,58.246C57.852,58.418 58.066,58.543 58.281,58.652C58.523,58.777 58.781,58.887 59.051,58.887C59.293,58.887 59.523,58.793 59.727,58.664C59.93,58.535 60.109,58.375 60.289,58.219C60.773,57.797 61.277,57.406 61.816,57.066C62.195,56.828 62.59,56.617 62.969,56.375C63.742,55.883 64.434,55.281 65.145,54.703C65.938,54.059 66.754,53.441 67.59,52.859C66.051,54.328 64.441,55.727 62.77,57.047C61.879,57.746 60.969,58.43 60.156,59.223C59.387,59.973 58.715,60.816 57.98,61.598C57.699,61.895 57.402,62.195 57.242,62.57C57.164,62.75 57.121,62.945 57.125,63.145C57.129,63.34 57.176,63.539 57.277,63.707C57.375,63.871 57.516,64.008 57.672,64.117C57.828,64.223 58.004,64.305 58.18,64.379C58.617,64.555 59.094,64.676 59.555,64.578C59.898,64.504 60.203,64.313 60.492,64.109C61.117,63.664 61.688,63.145 62.23,62.602C62.738,62.102 63.234,61.574 63.84,61.195C64.379,60.863 64.988,60.656 65.547,60.359C66.07,60.082 66.551,59.723 66.953,59.289C67.43,58.777 67.793,58.168 68.258,57.648C68.793,57.051 69.457,56.582 70.168,56.207C70.926,55.809 71.738,55.516 72.578,55.336C71.602,55.629 70.68,56.094 69.867,56.711C69.152,57.25 68.531,57.898 67.957,58.586C67.5,59.133 67.07,59.711 66.52,60.16C65.77,60.77 64.844,61.113 64.008,61.598C63.297,62.012 62.648,62.535 62.133,63.172C61.879,63.484 61.656,63.828 61.527,64.211C61.457,64.418 61.418,64.641 61.43,64.859C61.438,65.082 61.504,65.301 61.629,65.484C61.809,65.738 62.098,65.898 62.398,65.984C62.969,66.145 63.578,66.066 64.141,65.883C65.285,65.516 66.258,64.766 67.289,64.145C68.398,63.477 69.59,62.953 70.668,62.234C71.727,61.531 72.652,60.652 73.516,59.723C74.328,58.848 75.082,57.922 75.926,57.078C76.551,56.449 77.223,55.867 77.934,55.336C77.816,55.926 77.883,56.547 78.121,57.094C78.371,57.676 78.801,58.164 79.258,58.602C79.699,59.027 80.184,59.422 80.746,59.656C81.035,59.777 81.348,59.852 81.66,59.84C81.973,59.828 82.285,59.727 82.523,59.523C82.699,59.367 82.832,59.156 82.855,58.922C82.875,58.758 82.84,58.594 82.773,58.445C82.703,58.297 82.605,58.164 82.488,58.051C82.27,57.832 81.996,57.668 81.82,57.414C81.672,57.199 81.605,56.941 81.574,56.684C81.547,56.426 81.547,56.164 81.52,55.906C81.465,55.453 81.32,55.012 81.117,54.602C80.953,54.27 80.75,53.953 80.648,53.598C80.555,53.273 80.555,52.926 80.617,52.594C80.684,52.262 80.813,51.945 80.98,51.656C81.398,50.934 82.039,50.348 82.355,49.578C82.645,48.879 82.633,48.094 82.621,47.336C82.613,46.352 82.617,45.367 82.723,44.391C82.844,43.305 83.09,42.238 83.324,41.176C83.563,40.105 83.793,39.027 84.164,37.992C84.539,36.945 85.063,35.957 85.535,34.945C85.988,33.984 86.402,33 86.773,32L72.945,23.898L73.348,28.82Z" style="fill:white;fill-rule:nonzero;"/>
                </g>
                <g transform="matrix(0.500178,-0.869565,0.869565,0.500178,14.2498,70.3087)">
                    <path d="M67.85,16.368C67.511,17.933 67.383,19.543 67.469,21.143C67.536,22.466 67.753,23.774 67.85,25.096C67.94,26.333 67.928,27.58 67.828,28.818C67.758,29.643 67.654,30.464 67.506,31.28" style="fill:none;fill-rule:nonzero;stroke:black;stroke-width:1.13px;"/>
                </g>
                <g transform="matrix(1.00316,0,0,-1.00316,0.925786,50.3304)">
                    <path d="M74.184,26.504C74.777,26.187 75.336,25.816 75.859,25.398C76.316,25.031 76.742,24.629 77.133,24.191" style="fill:none;fill-rule:nonzero;stroke:black;stroke-width:1.13px;"/>
                </g>
                <g transform="matrix(1.00316,0,0,-1.00316,0.925786,58.6937)">
                    <path d="M76.461,27.473C77.109,28.169 77.805,28.817 78.539,29.415C79.207,29.962 79.91,30.466 80.68,30.856C81.297,31.169 81.949,31.403 82.621,31.559" style="fill:none;fill-rule:nonzero;stroke:black;stroke-width:1.13px;"/>
                </g>
                <g transform="matrix(1.00316,0,0,-1.00316,0.925786,66.7099)">
                    <path d="M85.387,34.238C85.852,34.132 86.262,33.796 86.453,33.359C86.652,32.914 86.621,32.371 86.371,31.949C86.883,31.902 87.41,32.05 87.824,32.351C87.984,32.468 88.129,32.609 88.23,32.777C88.336,32.945 88.398,33.144 88.395,33.339C88.387,33.531 88.316,33.714 88.273,33.898C88.25,33.992 88.23,34.085 88.23,34.183C88.23,34.277 88.246,34.375 88.289,34.46C88.336,34.554 88.41,34.628 88.496,34.691C88.578,34.75 88.672,34.796 88.77,34.839C89.039,34.96 89.32,35.054 89.605,35.121" style="fill:none;fill-rule:nonzero;stroke:black;stroke-width:1.13px;"/>
                </g>
                <g transform="matrix(0.984762,-2.25256e-18,2.25256e-18,-1.00316,2.53774,61.9258)">
                    <path d="M87.637,31.516C88.336,31.84 89.055,32.125 89.785,32.367C90.188,32.5 90.598,32.617 91.02,32.625C91.164,32.625 91.305,32.613 91.445,32.59C91.473,32.281 91.465,31.965 91.422,31.656C91.371,31.297 91.273,30.949 91.172,30.598C91.078,30.274 90.98,29.953 90.879,29.629" style="fill:none;fill-rule:nonzero;stroke:black;stroke-width:1.14px;"/>
                </g>
                <g transform="matrix(1.00316,0,0,-1.00316,0.925786,72.5452)">
                    <path d="M84.633,37.598C84.516,37.336 84.469,37.043 84.5,36.758C84.527,36.469 84.633,36.192 84.801,35.957C85.113,35.512 85.66,35.242 86.207,35.254" style="fill:none;fill-rule:nonzero;stroke:black;stroke-width:1.13px;"/>
                </g>
                <g transform="matrix(1.00316,0,0,-1.00316,0.925786,62.4354)">
                    <path d="M81.332,27.828C81.879,27.824 82.426,28.008 82.859,28.348C83.426,28.789 83.766,29.457 84.043,30.121C84.316,30.785 84.551,31.477 84.965,32.063C85.586,32.942 86.559,33.504 87.547,33.934C88.566,34.379 89.633,34.715 90.727,34.938" style="fill:none;fill-rule:nonzero;stroke:black;stroke-width:1.13px;"/>
                </g>
                <g transform="matrix(1.00316,0,0,-1.00316,0.925786,135.407)">
                    <path d="M96.184,72.875C93.77,70.645 91.82,67.914 90.492,64.906C90.164,64.16 89.871,63.402 89.621,62.629" style="fill:white;fill-rule:nonzero;stroke:black;stroke-width:1.13px;"/>
                </g>
                <g transform="matrix(1.00316,0,0,-1.00316,0.925786,83.8468)">
                    <path d="M37.117,50.532C35.758,50.59 34.355,50.309 33.273,49.438C32.168,48.598 31.031,47.754 30.031,46.801C29.543,46.2 30.285,45.454 30.953,45.606C32.402,45.637 33.828,45.317 35.156,44.747C39.203,43.27 43.059,41.325 46.789,39.168C50.387,37.09 54.086,35.126 58.066,33.876C58.598,33.586 59.477,33.516 59.672,34.243C59.848,34.922 59.137,35.333 58.992,35.946C58.27,37.602 58.254,39.383 58.102,41.137C57.887,41.954 56.914,42.465 57.27,43.411C57.57,44.586 57.934,45.903 57.66,47.122C57.094,47.751 56.117,47.551 55.363,47.786C50.375,48.59 45.426,49.532 40.445,50.379C39.344,50.551 38.23,50.536 37.117,50.532Z" style="fill-rule:nonzero;"/>
                </g>
                <g transform="matrix(1.00316,0,0,-1.00316,0.925786,89.8025)">
                    <path d="M73.348,28.82C73.27,29.418 73.234,30.023 73.246,30.629C73.254,30.871 73.266,31.113 73.238,31.352C73.215,31.594 73.148,31.836 73.012,32.035C72.891,32.211 72.723,32.348 72.539,32.461C72.355,32.574 72.164,32.664 71.977,32.77C71.227,33.191 70.621,33.816 70.035,34.445C68.805,35.762 67.625,37.121 66.496,38.523C65.609,39.633 64.742,40.777 64.176,42.078C63.637,43.305 63.371,44.648 62.734,45.828C61.855,47.457 60.348,48.629 59.086,49.98C58.566,50.535 58.07,51.152 57.879,51.891C57.82,52.125 57.793,52.367 57.824,52.609C57.855,52.848 57.953,53.082 58.113,53.262C58.25,53.41 58.43,53.52 58.621,53.574C58.816,53.629 59.02,53.633 59.219,53.598C59.605,53.523 59.938,53.289 60.258,53.063C61.203,52.383 62.129,51.68 63.035,50.953C63.789,50.344 64.523,49.719 65.246,49.078C64.367,49.93 63.477,50.766 62.566,51.586C61.5,52.551 60.414,53.496 59.418,54.535C58.801,55.184 58.219,55.871 57.711,56.609C57.609,56.762 57.508,56.914 57.438,57.082C57.367,57.25 57.324,57.434 57.344,57.613C57.371,57.855 57.504,58.078 57.676,58.246C57.852,58.418 58.066,58.543 58.281,58.652C58.523,58.777 58.781,58.887 59.051,58.887C59.293,58.887 59.523,58.793 59.727,58.664C59.93,58.535 60.109,58.375 60.289,58.219C60.773,57.797 61.277,57.406 61.816,57.066C62.195,56.828 62.59,56.617 62.969,56.375C63.742,55.883 64.434,55.281 65.145,54.703C65.938,54.059 66.754,53.441 67.59,52.859C66.051,54.328 64.441,55.727 62.77,57.047C61.879,57.746 60.969,58.43 60.156,59.223C59.387,59.973 58.715,60.816 57.98,61.598C57.699,61.895 57.402,62.195 57.242,62.57C57.164,62.75 57.121,62.945 57.125,63.145C57.129,63.34 57.176,63.539 57.277,63.707C57.375,63.871 57.516,64.008 57.672,64.117C57.828,64.223 58.004,64.305 58.18,64.379C58.617,64.555 59.094,64.676 59.555,64.578C59.898,64.504 60.203,64.313 60.492,64.109C61.117,63.664 61.688,63.145 62.23,62.602C62.738,62.102 63.234,61.574 63.84,61.195C64.379,60.863 64.988,60.656 65.547,60.359C66.07,60.082 66.551,59.723 66.953,59.289C67.43,58.777 67.793,58.168 68.258,57.648C68.793,57.051 69.457,56.582 70.168,56.207C70.926,55.809 71.738,55.516 72.578,55.336C71.602,55.629 70.68,56.094 69.867,56.711C69.152,57.25 68.531,57.898 67.957,58.586C67.5,59.133 67.07,59.711 66.52,60.16C65.77,60.77 64.844,61.113 64.008,61.598C63.297,62.012 62.648,62.535 62.133,63.172C61.879,63.484 61.656,63.828 61.527,64.211C61.457,64.418 61.418,64.641 61.43,64.859C61.438,65.082 61.504,65.301 61.629,65.484C61.809,65.738 62.098,65.898 62.398,65.984C62.969,66.145 63.578,66.066 64.141,65.883C65.285,65.516 66.258,64.766 67.289,64.145C68.398,63.477 69.59,62.953 70.668,62.234C71.727,61.531 72.652,60.652 73.516,59.723C74.328,58.848 75.082,57.922 75.926,57.078C76.551,56.449 77.223,55.867 77.934,55.336C77.816,55.926 77.883,56.547 78.121,57.094C78.371,57.676 78.801,58.164 79.258,58.602C79.699,59.027 80.184,59.422 80.746,59.656C81.035,59.777 81.348,59.852 81.66,59.84C81.973,59.828 82.285,59.727 82.523,59.523C82.699,59.367 82.832,59.156 82.855,58.922C82.875,58.758 82.84,58.594 82.773,58.445C82.703,58.297 82.605,58.164 82.488,58.051C82.27,57.832 81.996,57.668 81.82,57.414C81.672,57.199 81.605,56.941 81.574,56.684C81.547,56.426 81.547,56.164 81.52,55.906C81.465,55.453 81.32,55.012 81.117,54.602C80.953,54.27 80.75,53.953 80.648,53.598C80.555,53.273 80.555,52.926 80.617,52.594C80.684,52.262 80.813,51.945 80.98,51.656C81.398,50.934 82.039,50.348 82.355,49.578C82.645,48.879 82.633,48.094 82.621,47.336C82.613,46.352 82.617,45.367 82.723,44.391C82.844,43.305 83.09,42.238 83.324,41.176C83.563,40.105 83.793,39.027 84.164,37.992C84.539,36.945 85.063,35.957 85.535,34.945C85.988,33.984 86.402,33 86.773,32L72.945,23.898L73.348,28.82Z" style="fill:none;fill-rule:nonzero;stroke:black;stroke-width:1.13px;"/>
                </g>
                <g transform="matrix(1.00316,0,0,-1.00316,0.925786,110.124)">
                    <path d="M85.34,70.985C84.629,70.903 84.625,70.113 84.512,69.578C84.16,68.129 83.43,66.805 82.473,65.668C82.148,64.926 82.523,64.094 82.59,63.321C83.023,61.258 83.426,59.164 84.227,57.211C84.742,56.395 85.867,56.516 86.688,56.278C90.914,55.5 95.215,55.008 99.258,53.524C100.184,53.317 101.023,52.656 102,52.738C102.523,53.02 102.855,52.371 103.234,52.121C106.09,49.598 108.32,46.485 110.789,43.606C111.441,42.817 111.836,41.821 111.809,40.789C111.84,39.832 113.195,39.238 113.797,40.074C114.273,40.91 113.992,41.942 114.227,42.848C114.676,45.41 115.117,48.215 113.941,50.656C112.711,53.164 110.297,54.778 108.141,56.426C104.781,58.895 100.734,60.219 97.309,62.547C95.234,63.891 93.102,65.168 90.785,66.051C89.223,66.711 87.539,67.567 86.824,69.211C86.418,69.844 86.355,71.063 85.34,70.985Z" style="fill-rule:nonzero;"/>
                </g>
                <g transform="matrix(1.00316,0,0,-1.00316,0.925786,135.897)">
                    <path d="M73.715,72.125L73.348,74.769C72.695,74.441 72.051,74.109 71.406,73.765C71.043,73.57 70.676,73.367 70.379,73.082C70.23,72.937 70.102,72.773 70.008,72.586C69.918,72.402 69.863,72.195 69.867,71.988C69.867,71.785 69.93,71.574 70.066,71.422C70.168,71.308 70.301,71.23 70.445,71.191C70.586,71.148 70.738,71.144 70.887,71.16C71.184,71.191 71.461,71.312 71.742,71.422C72.922,71.875 74.18,72.097 75.355,72.558C76.961,73.187 78.355,74.234 79.777,75.203C81.129,76.125 82.52,76.988 83.93,77.816C84.926,78.402 85.93,78.969 86.941,79.523C88.305,76.929 89.309,74.152 89.922,71.285C90.234,69.82 90.473,68.273 91.363,67.066C91.59,66.758 91.855,66.48 92.09,66.176C92.32,65.875 92.523,65.535 92.602,65.16C92.672,64.801 92.625,64.429 92.559,64.07C92.492,63.707 92.406,63.347 92.398,62.984C92.395,62.601 92.473,62.226 92.578,61.859C92.68,61.492 92.809,61.133 92.934,60.773L94.43,56.469L72.965,57.246L73.113,60.504C73.137,61.008 73.199,61.508 73.18,62.012C73.156,62.64 72.969,63.25 72.723,63.828C72.477,64.406 72.176,64.957 71.91,65.527C71.344,66.742 70.949,68.027 70.57,69.312C70.352,70.047 70.141,70.785 69.934,71.519" style="fill:white;fill-rule:nonzero;stroke:black;stroke-width:1.13px;"/>
                </g>
                <g transform="matrix(1.00316,0,0,-1.00316,0.925786,143.887)">
                    <path d="M15.633,66.187C14.852,64 13.098,62.18 10.938,61.324C10.082,60.984 9.133,60.789 8.23,60.992C7.469,61.164 6.773,61.629 6.316,62.266C5.863,62.906 5.656,63.711 5.742,64.492C5.832,65.269 6.215,66.012 6.801,66.531C7.387,67.051 8.164,67.348 8.949,67.344C9.797,68.566 10.629,69.801 11.434,71.047C11.727,71.496 12.016,71.949 12.371,72.355C12.727,72.758 13.148,73.109 13.645,73.312C14.184,73.531 14.773,73.562 15.352,73.582C15.934,73.605 16.523,73.621 17.07,73.809C17.578,73.984 18.023,74.301 18.418,74.664C18.809,75.031 19.152,75.445 19.5,75.852C20.359,76.852 21.273,77.812 22.316,78.613C23.074,79.195 23.891,79.684 24.637,80.273C25.664,81.078 26.551,82.062 27.242,83.168" style="fill:none;fill-rule:nonzero;stroke:black;stroke-width:1.13px;"/>
                </g>
            </g>
        </g>
    </g>
    <g transform="matrix(1.58926,0,0,1.58926,-13.3655,1.18074)">
        <text x="12.902px" y="16.069px" style="font-family:'Impact', sans-serif;font-stretch:condensed;font-size:10.968px;">Je to ...</text>
    </g>
</svg>
